<svg width="133" height="85" viewBox="0 0 133 85" fill="none" xmlns="http://www.w3.org/2000/svg">
<path d="M102.778 54.8271H99.5995V57.915H102.778V54.8271Z" fill="black"/>
<path d="M93.5743 48.6274V65.508H102.778V62.3539H96.7645V61.1537H96.7525V52.2701H96.7645V51.7696H102.778V48.6274H93.5743Z" fill="black"/>
<path d="M56.4901 54.6462H53.2397V65.508H56.4901V54.6462Z" fill="black"/>
<path d="M50.2542 48.6274V51.7937H53.2397H56.4961H59.5658V48.6274H50.2542Z" fill="black"/>
<path d="M26.647 48.6274H29.7228L36.9338 59.7364V48.6274H40.142V65.508H37.0542L29.8552 54.4352V61.7085H26.647V48.6274Z" fill="black"/>
<path d="M9.75109 48.6274H6.50072L0 65.508H3.32861L8.14396 53.1024L12.8931 65.508H16.2277L9.75109 48.6274Z" fill="black"/>
<path d="M78.5504 51.4801V54.9961H72.9285V48.6274H69.6781V62.6554H72.9285V58.1081H78.5504V65.508H81.7947V51.4801H78.5504Z" fill="black"/>
<path d="M129.882 62.6554H133L132.982 48.6274H128.847L123.893 60.4059L118.927 48.6274H114.786V65.508H117.892L117.862 54.8453L122.472 65.508H125.32L129.906 54.8453L129.882 62.6554Z" fill="black"/>
<path d="M46.6487 41.0587L66.6986 1.2063L86.5378 41.0587" stroke="black" stroke-width="4" stroke-miterlimit="10" stroke-linecap="round" stroke-linejoin="round"/>
<path d="M64.3632 41.0587L68.2094 33.7612L71.839 41.0587" stroke="black" stroke-width="4" stroke-miterlimit="10" stroke-linecap="round" stroke-linejoin="round"/>
<path d="M34.2793 72.4558L28.5731 83.794H89.71L84.07 72.4558" stroke="black" stroke-width="4" stroke-miterlimit="10" stroke-linecap="round" stroke-linejoin="round"/>
<path d="M98.7809 72.4558L104.427 83.794" stroke="black" stroke-width="4" stroke-miterlimit="10" stroke-linecap="round" stroke-linejoin="round"/>
</svg>
