<svg width="24" height="24" viewBox="0 0 24 24" fill="none" xmlns="http://www.w3.org/2000/svg">
<path d="M11.9998 2C9.28392 2 8.94334 2.01151 7.87675 2.06034C6.81255 2.10876 6.08574 2.27786 5.44944 2.52516C4.79171 2.78079 4.234 3.12256 3.67828 3.67867C3.12256 4.2344 2.78039 4.7921 2.52516 5.44944C2.27786 6.08574 2.10876 6.81254 2.06034 7.87675C2.01151 8.94334 2 9.28391 2 11.9998C2 14.7157 2.01151 15.0563 2.06034 16.1229C2.10876 17.1871 2.27786 17.9139 2.52516 18.5502C2.78079 19.2079 3.12256 19.7652 3.67868 20.3213C4.23479 20.8774 4.7921 21.2192 5.44984 21.4748C6.08574 21.7221 6.81294 21.8912 7.87715 21.9397C8.94374 21.9885 9.28432 22 12.0002 22C14.7161 22 15.0567 21.9885 16.1233 21.9397C17.1875 21.8912 17.9147 21.7221 18.5506 21.4748C19.2083 21.2192 19.7656 20.8774 20.3217 20.3213C20.8779 19.7652 21.2196 19.2079 21.4753 18.5502C21.7226 17.9143 21.8917 17.1871 21.9401 16.1229C21.9889 15.0563 22.0004 14.7157 22.0004 11.9998C22.0004 9.28391 21.9889 8.94334 21.9401 7.87675C21.8917 6.81254 21.7226 6.08534 21.4753 5.44944C21.2196 4.7917 20.8779 4.2344 20.3217 3.67828C19.7656 3.12216 19.2083 2.78039 18.5506 2.52476C17.9139 2.27786 17.1871 2.10876 16.1229 2.06034C15.0563 2.01151 14.7157 2 11.9998 2ZM11.9998 3.80173C14.6701 3.80173 14.986 3.81205 16.0407 3.86008C17.0156 3.90454 17.5451 4.06728 17.8976 4.20423C18.3644 4.38563 18.6974 4.60236 19.0476 4.95207C19.3977 5.30217 19.6144 5.63521 19.7958 6.10201C19.9327 6.4545 20.0955 6.98402 20.1399 7.95892C20.188 9.0132 20.1983 9.32956 20.1983 11.9998C20.1983 14.67 20.188 14.986 20.1399 16.0407C20.0955 17.0156 19.9327 17.5451 19.7958 17.8976C19.6144 18.3644 19.3977 18.6974 19.0476 19.0475C18.6978 19.3976 18.3644 19.614 17.8976 19.7958C17.5451 19.9327 17.0156 20.0955 16.0407 20.1399C14.9864 20.188 14.6701 20.1983 11.9998 20.1983C9.32957 20.1983 9.01321 20.188 7.95892 20.1399C6.98403 20.0955 6.4545 19.9327 6.10202 19.7958C5.63521 19.6144 5.30218 19.3976 4.95207 19.0475C4.60197 18.6974 4.38524 18.3644 4.20423 17.8976C4.06728 17.5451 3.90454 17.0156 3.86008 16.0407C3.81205 14.9864 3.80173 14.67 3.80173 11.9998C3.80173 9.32956 3.81205 9.0136 3.86008 7.95892C3.90454 6.98402 4.06728 6.4545 4.20423 6.10201C4.38563 5.63521 4.60236 5.30217 4.95207 4.95207C5.30218 4.60196 5.63521 4.38523 6.10202 4.20423C6.4545 4.06728 6.98403 3.90454 7.95892 3.86008C9.0136 3.81205 9.32957 3.80173 11.9998 3.80173Z" fill="#383838"/>
<path d="M11.9997 15.3328C10.1587 15.3328 8.6666 13.8402 8.6666 11.9996C8.6666 10.1586 10.1591 8.66647 11.9997 8.66647C13.8408 8.66647 15.3329 10.159 15.3329 11.9996C15.3329 13.8406 13.8408 15.3328 11.9997 15.3328ZM11.9997 6.86475C9.16357 6.86475 6.86487 9.16385 6.86487 11.9996C6.86487 14.8358 9.16397 17.1345 11.9997 17.1345C14.8359 17.1345 17.1346 14.8354 17.1346 11.9996C17.135 9.16345 14.8359 6.86475 11.9997 6.86475Z" fill="#383838"/>
<path d="M18.5379 6.66188C18.5379 7.32477 18.0004 7.86184 17.3379 7.86184C16.675 7.86184 16.1379 7.32477 16.1379 6.66188C16.1379 5.99898 16.6754 5.46191 17.3379 5.46191C18.0004 5.46152 18.5379 5.99898 18.5379 6.66188Z" fill="#383838"/>
</svg>
