<svg width="24" height="25" viewBox="0 0 24 25" fill="none" xmlns="http://www.w3.org/2000/svg">
<path fill-rule="evenodd" clip-rule="evenodd" d="M2.98995 4.92967C3.30627 4.39885 5.05018 2.47193 6.2929 2.5301C6.66469 2.5623 6.99334 2.78875 7.26037 3.0526H7.2614C7.87351 3.65925 9.62974 5.9487 9.72834 6.43069C9.97175 7.61282 8.57806 8.29425 9.00428 9.48573C10.0909 12.1751 11.9632 14.0688 14.6232 15.1668C15.8002 15.5989 16.4739 14.1903 17.6427 14.4355C18.1192 14.5362 20.3839 16.3115 20.9826 16.9317V16.9317C21.2425 17.2007 21.4684 17.5341 21.4992 17.9102C21.5454 19.2346 19.5222 21.0224 19.1278 21.2509C18.1973 21.925 16.9833 21.9126 15.5034 21.2166C11.3737 19.4787 4.77391 12.9293 3.02384 8.59446C2.35421 7.1059 2.30902 5.86976 2.98995 4.92967Z" stroke="#383838" stroke-width="1.5" stroke-linecap="round" stroke-linejoin="round"/>
<path d="M14.5654 2.78174C18.2674 3.19747 21.1904 6.15111 21.6064 9.89475" stroke="#383838" stroke-width="1.5" stroke-linecap="round" stroke-linejoin="round"/>
<path d="M14.5654 6.36572C16.3354 6.7147 17.7184 8.11363 18.0634 9.90402" stroke="#383838" stroke-width="1.5" stroke-linecap="round" stroke-linejoin="round"/>
</svg>