<svg width="24" height="24" viewBox="0 0 24 24" fill="none" xmlns="http://www.w3.org/2000/svg">
<path fill-rule="evenodd" clip-rule="evenodd" d="M19.0859 4.90629C17.206 3.03307 14.7059 2.00095 12.042 2C6.55283 2 2.08547 6.44545 2.08356 11.9097C2.08261 13.6565 2.54147 15.3615 3.41288 16.8641L2 22L7.27909 20.6219C8.73352 21.4117 10.3713 21.8275 12.0377 21.828L12.042 21.828C12.0425 21.828 12.0415 21.828 12.042 21.828C17.5302 21.828 21.9981 17.3821 22 11.9178C22.001 9.26953 20.9662 6.77951 19.0859 4.90629ZM12.042 20.1543L12.0387 20.1543C10.5537 20.1539 9.09688 19.7566 7.82581 19.0063L7.52356 18.8276L4.39078 19.6454L5.22685 16.6056L5.03013 16.2939C4.20169 14.9823 3.76384 13.4665 3.76479 11.9102C3.7667 7.36875 7.47964 3.67364 12.0454 3.67364C14.2561 3.67459 16.3341 4.53231 17.897 6.08953C19.4598 7.64626 20.3197 9.71621 20.3188 11.9168C20.3169 16.4588 16.6039 20.1543 12.042 20.1543ZM16.582 13.9849C16.3332 13.8609 15.1099 13.2621 14.8816 13.1794C14.6534 13.0967 14.4877 13.0554 14.322 13.3035C14.1563 13.5515 13.6793 14.1094 13.5342 14.2743C13.389 14.4396 13.2439 14.4601 12.9951 14.3361C12.7463 14.212 11.9446 13.9507 10.9939 13.1072C10.2543 12.4505 9.75486 11.6398 9.6097 11.3918C9.46455 11.1437 9.59442 11.0097 9.71857 10.8866C9.8303 10.7754 9.96734 10.5972 10.092 10.4528C10.2166 10.3083 10.2577 10.2047 10.3407 10.0398C10.4238 9.87445 10.3823 9.72999 10.3202 9.60597C10.2581 9.48194 9.76059 8.26307 9.55288 7.76744C9.3509 7.28464 9.14559 7.35022 8.99327 7.34214C8.84811 7.33501 8.68242 7.33359 8.51626 7.33359C8.35057 7.33359 8.08079 7.39536 7.85255 7.64341C7.62431 7.89147 6.98162 8.49069 6.98162 9.70909C6.98162 10.928 7.87308 12.1055 7.99771 12.2709C8.12233 12.4362 9.75247 14.9372 12.2483 16.0102C12.8418 16.2653 13.3054 16.4179 13.6669 16.5319C14.2628 16.7206 14.8052 16.694 15.234 16.6303C15.712 16.559 16.7061 16.0311 16.9133 15.4528C17.1206 14.8745 17.1206 14.3783 17.0585 14.2752C16.9964 14.1712 16.8307 14.1089 16.582 13.9849Z" fill="#383838"/>
</svg>
